<svg xmlns="http://www.w3.org/2000/svg" viewBox="0.139914 0.14 405.1 407.9">
  <path d="M 194.1279 407.82 C 154.2279 402.78 139.1079 399 116.8479 388.36 C 77.9279 370.02 45.4479 339.64 24.7279 302.12 C 13.5279 281.96 4.4279 255.22 1.6279 234.64 C -0.3321 221.06 -0.3321 181.3 1.4879 171.36 C 4.0079 158.06 4.5679 155.96 9.4679 140 C 25.1479 89.46 63.0879 45.36 111.5279 21.14 C 142.7479 5.6 166.2679 0.28 203.2279 0.14 C 222.9679 0.14 228.7079 0.56 243.8279 3.36 C 268.6079 7.7 295.0679 18.9 319.0079 34.86 C 360.3079 62.72 389.5679 105 401.4679 154.42 C 409.0279 185.92 405.5279 201.32 389.0079 210.14 C 383.5479 213.08 381.0279 213.36 355.5479 213.78 L 327.8279 214.34 L 327.8279 222.6 C 327.8279 232.82 324.8879 236.46 316.7679 236.46 C 307.8079 236.46 296.8879 239.12 287.5079 243.46 C 280.7879 246.68 274.2079 251.86 258.6679 266.84 C 238.3679 286.44 229.8279 292.74 214.1479 299.18 C 206.3079 302.4 203.0879 302.82 184.0479 303.38 L 162.9079 303.94 L 160.5279 300.44 C 158.7079 297.5 158.2879 293.72 158.5679 279.3 C 158.7079 269.5 158.5679 261.24 158.0079 260.82 C 157.5879 260.4 142.4679 260.12 124.5479 260.12 C 92.6279 260.26 83.5279 259.42 81.1479 255.78 C 79.1879 252.56 79.8879 242.48 82.4079 240.52 C 84.0879 238.98 93.1879 238.42 121.6079 237.86 L 158.5679 237.16 L 158.5679 203.84 C 158.5679 185.64 158.1479 169.96 157.7279 169.26 C 157.1679 168.42 143.3079 167.86 120.7679 167.86 C 79.7479 167.86 80.0279 167.86 80.0279 156.94 C 80.0279 147 80.8679 146.86 122.3079 146.86 C 150.1679 146.86 158.4279 146.44 158.5679 145.18 C 158.5679 144.2 158.5679 136.08 158.4279 127.12 C 158.1479 109.48 159.6879 103.88 165.0079 102.62 C 166.6879 102.2 175.6479 102.06 184.6079 102.34 C 197.9079 102.76 203.2279 103.74 212.0479 106.68 C 227.7279 112.14 236.2679 118.16 256.9879 138.32 C 279.9479 160.44 288.9079 165.62 308.9279 168.42 C 326.0079 170.8 328.5279 172.76 328.5279 184.38 L 328.5279 192.36 L 353.5879 192.36 L 378.5079 192.36 L 381.8679 188.44 C 384.6679 185.22 385.0879 183.4 384.5279 178.64 C 381.5879 153.16 368.8479 121.24 352.4679 98.14 C 342.9479 84.56 319.0079 61.18 306.1279 52.78 C 283.3079 37.8 265.9479 30.38 239.6279 24.5 C 218.6279 19.74 188.3879 19.74 167.8079 24.36 C 143.1679 29.96 129.3079 35.42 109.4279 47.32 C 49.2279 83.3 14.5079 152.18 21.9279 221.06 C 24.1679 243.04 26.1279 250.46 35.5079 274.96 C 41.9479 291.76 58.3279 315.7 74.4279 331.66 C 100.4679 357.84 132.3879 374.92 169.6279 382.9 C 181.2479 385.42 216.2479 386.54 225.9079 384.86 C 229.2679 384.16 233.8879 383.46 236.1279 383.04 C 242.4279 382.06 248.4479 380.52 251.5279 379.26 C 253.0679 378.7 258.1079 377.16 262.7279 375.76 C 273.0879 372.82 290.4479 364.14 302.7679 356.02 C 307.9479 352.66 312.7079 349.86 313.2679 349.86 C 313.9679 349.86 321.3879 343.14 329.7879 335.16 C 343.0879 322.42 345.7479 320.46 349.8079 320.46 C 356.1079 320.46 361.4279 325.64 361.4279 331.8 C 361.4279 336.42 359.0479 339.08 337.6279 359.1 C 324.7479 371 294.5079 388.08 272.2479 395.92 C 263.9879 398.86 248.0279 402.78 240.3279 403.9 C 238.0879 404.32 233.0479 405.16 229.1279 405.86 C 220.5879 407.4 199.8679 408.52 194.1279 407.82 Z M 225.6279 402.64 C 226.7479 402.22 230.9479 401.52 234.7279 401.1 C 238.6479 400.68 243.8279 399.7 246.3479 399 C 248.8679 398.3 251.2479 397.6 251.5279 397.6 C 255.3079 397.74 276.7279 391.3 279.3879 389.34 C 280.2279 388.64 284.4279 386.68 288.6279 384.86 C 297.0279 381.36 320.9679 367.92 326.4279 363.58 C 333.1479 358.26 345.1879 347.76 351.2079 341.74 C 357.6479 335.44 358.9079 330.68 354.9879 326.9 C 350.3679 322.28 346.4479 324.1 331.6079 338.38 C 323.4879 346.08 312.2879 354.9 305.9879 358.68 C 299.9679 362.32 293.9479 365.96 292.8279 366.66 C 288.4879 369.46 266.6479 378.84 260.6279 380.52 C 257.1279 381.5 253.0679 382.9 251.5279 383.46 C 246.6279 385.42 233.7479 387.66 218.6279 389.2 C 196.7879 391.44 172.1479 388.5 147.9279 381.08 C 98.6479 365.68 53.7079 325.64 33.1279 278.74 C 28.5079 267.96 23.0479 250.74 19.6879 236.46 C 17.7279 227.78 17.1679 186.48 18.8479 175.56 C 26.2679 128.94 53.5679 83.3 91.3679 54.88 C 100.0479 48.44 124.6879 33.46 126.7879 33.46 C 127.3479 33.46 130.7079 32.06 134.3479 30.38 C 140.9279 27.44 152.5479 23.94 169.6279 19.74 C 181.2479 16.94 222.8279 16.66 234.0279 19.18 C 238.2279 20.16 244.5279 21.7 248.0279 22.54 C 284.9879 31.22 324.1879 56.56 349.5279 88.06 C 358.6279 99.54 362.8279 106.12 370.3879 121.38 C 378.7879 138.18 381.4479 146.02 386.4879 169.12 C 389.9879 184.8 389.1479 187.74 379.6279 193.76 C 375.0079 196.7 372.7679 196.98 352.7479 197.12 L 330.9079 197.26 L 327.9679 193.62 C 326.1479 191.24 325.0279 187.88 325.0279 184.52 C 325.0279 178.64 321.3879 173.6 317.0479 173.32 C 315.6479 173.32 313.5479 173.04 312.4279 172.76 C 311.3079 172.62 307.6679 171.92 304.3079 171.5 C 287.3679 168.84 275.0479 161.28 253.6279 140.42 C 243.9679 131.04 233.0479 121.52 229.2679 119.14 C 215.5479 110.46 195.1079 104.86 176.9079 104.86 C 163.1879 104.86 162.6279 105.84 162.6279 128.8 L 162.6279 146.44 L 157.4479 148.68 C 153.2479 150.5 147.2279 151.06 130.4279 151.06 C 106.4879 151.2 106.3479 151.2 95.7079 151.06 C 86.6079 151.06 83.5279 152.6 83.1079 157.08 C 82.6879 163.66 84.5079 163.94 121.8879 163.8 L 156.8879 163.66 L 159.6879 167.3 C 162.4879 170.8 162.6279 172.76 162.6279 203.28 C 162.6279 234.5 162.4879 235.62 159.5479 238.84 C 156.6079 242.06 156.3279 242.06 122.1679 242.06 C 85.4879 242.2 82.6879 242.62 83.2479 248.92 C 83.6679 255.92 85.6279 256.2 121.1879 256.06 C 153.8079 256.06 158.7079 256.62 161.5079 260.82 C 162.0679 261.66 162.6279 269.92 162.6279 279.16 C 162.6279 290.92 163.3279 296.66 164.5879 298.48 C 167.2479 301.98 188.9479 301.7 203.5079 298.06 C 223.2479 293.16 232.4879 287.14 257.1279 263.2 C 267.3479 253.26 278.4079 243.88 282.4679 241.78 C 290.8679 237.3 303.7479 233.66 311.4479 233.66 C 314.6679 233.66 318.5879 232.54 320.9679 230.72 C 324.4679 228.2 325.0279 226.94 325.0279 221.06 C 325.0279 215.32 325.4479 214.06 328.1079 213.22 C 329.7879 212.8 332.1679 211.4 333.2879 210.14 C 334.8279 208.6 335.5279 208.46 335.9479 209.86 C 336.3679 211.12 336.7879 211.12 337.7679 209.72 C 338.4679 208.6 339.0279 208.46 339.0279 209.16 C 339.0279 210.98 375.4279 210.28 382.7079 208.32 C 394.1879 205.38 401.8879 194.18 402.0279 180.6 C 402.0279 171.08 394.7479 141.12 389.0079 127.26 C 361.9879 62.02 306.5479 18.2 234.7279 5.32 C 215.5479 1.82 177.0479 3.5 156.3279 8.68 C 154.7879 9.1 150.4479 10.08 146.8079 10.92 C 135.8879 13.44 100.4679 30.1 90.6679 37.24 C 80.5879 44.8 61.1279 61.18 57.6279 65.24 C 39.8479 85.68 29.3479 101.5 21.9279 118.16 C 19.8279 122.78 17.5879 127.68 16.8879 129.08 C 14.0879 134.26 6.6679 162.12 4.7079 174.16 C 3.3079 183.96 4.0079 229.88 5.8279 238.56 C 8.2079 249.76 8.0679 249.48 9.0479 251.86 C 9.4679 252.98 10.8679 257.74 11.9879 262.36 C 16.0479 278.46 30.0479 306.32 42.9279 324.1 C 60.1479 347.76 88.9879 371 118.2479 384.72 C 136.5879 393.4 154.2279 398.44 176.6279 401.66 C 182.2279 402.5 187.2679 403.34 187.5479 403.62 C 188.3879 404.46 223.2479 403.62 225.6279 402.64 Z" fill="#000000"/>
</svg>